inDegrees=yes
name=ik_S49_A10_T01
DataType=double
version=3
OpenSimVersion=4.3-2021-08-27-4bc7ad9
endheader
time	pelvis_tilt	pelvis_list	pelvis_rotation	pelvis_tx	pelvis_ty	pelvis_tz	hip_flexion_r	hip_adduction_r	hip_rotation_r	knee_angle_r	knee_angle_r_beta	ankle_angle_r	subtalar_angle_r	mtp_angle_r	hip_flexion_l	hip_adduction_l	hip_rotation_l	knee_angle_l	knee_angle_l_beta	ankle_angle_l	subtalar_angle_l	mtp_angle_l	lumbar_extension	lumbar_bending	lumbar_rotation	arm_flex_r	arm_add_r	arm_rot_r	elbow_flex_r	pro_sup_r	wrist_flex_r	wrist_dev_r	arm_flex_l	arm_add_l	arm_rot_l	elbow_flex_l	pro_sup_l	wrist_flex_l	wrist_dev_l
10.69999999999986	-1.919701905090728	-0.7925598761383765	29.82979456316335	0	0.9399999999999999	0	44.16799400029271	-9.999210484421438	-9.990816006595118	53.39853706060526	0.9319802874557767	0	0	0	44.16799400029271	-9.999210484421438	-9.990816006595118	53.39853706060526	0.9319802874557767	0	0	0	-1.774056197716524	-0.3462498167210631	5.163096122076741	29.00431531134657	7.127383613730857	-1.160412895176262	13.22613319821293	74.51682668138639	0	0	29.07216747415283	4.202852761231799	14.29753324137822	9.6294246722232	62.32633505481711	0	0
10.71999999999986	-1.707919494301044	-0.5912189128503186	30.07426406292134	0	0.9399999999999999	0	44.18196829235499	-9.999241842137357	-9.991087275459646	53.42209546815517	0.9323914592340492	0	0	0	44.18196829235499	-9.999241842137357	-9.991087275459646	53.42209546815517	0.9323914592340492	0	0	0	-1.497362565231867	-0.2454406182559792	4.967226526021264	28.45510007317291	6.86221310746705	-1.106662762918694	17.71375889813858	74.99177912507029	0	0	35.36097463421316	2.796548676278679	14.19238171077514	8.10023843450726	61.65210256751618	0	0
10.73999999999986	-1.519523349359873	-0.3683068823538209	29.90414635221374	0	0.9399999999999999	0	44.19568732241698	-9.999271921045279	-9.991350200072741	53.44526871487903	0.9327959086877575	0	0	0	44.19568732241698	-9.999271921045279	-9.991350200072741	53.44526871487903	0.9327959086877575	0	0	0	-1.215797320955201	-0.1803263183077643	5.170861892272971	35.22791806909446	7.823299539009315	-3.604304832911737	14.98353862916758	77.23190076028172	0	0	35.00392833223815	2.487997936474279	14.24557077850944	12.09992377007151	61.76893610514625	0	0
10.75999999999986	-1.325819282558239	-0.1529353695386076	30.03056594408552	0	0.9399999999999999	0	44.21055436084788	-9.999303516323961	-9.991629709249713	53.47075422842178	0.9332407148106401	0	0	0	44.21055436084788	-9.999303516323961	-9.991629709249713	53.47075422842178	0.9332407148106401	0	0	0	-0.9364613299792554	-0.08186432359020757	5.087862442967753	38.56074012481866	8.122017255058438	-4.684054161989771	16.22466642515966	78.24000703050451	0	0	42.21046779471229	0.9888069591371811	14.10600319664204	10.3279530158394	61.53436222598362	0	0
10.77999999999986	-1.145504030550173	0.0378943160510497	30.10243629419863	0	0.9399999999999999	0	44.22450222026398	-9.999332441697312	-9.991888424494277	53.49469922053719	0.9336586337624181	0	0	0	44.22450222026398	-9.999332441697312	-9.991888424494277	53.49469922053719	0.9336586337624181	0	0	0	-0.6862855326499421	-0.002199333740564379	5.041443697599953	42.12733688237319	8.428486972087418	-5.809225717695451	17.57351459022572	79.25317206622648	0	0	45.8981679745246	-0.05866198623642482	14.15354616110606	11.6655210096847	61.43820156876424	0	0
10.79999999999986	-1.063146584722149	0.1186336616586423	30.19386170115435	0	0.9399999999999999	0	44.23874899867171	-9.999361113864095	-9.992148335236418	53.51926004534674	0.9340873010223504	0	0	0	44.23874899867171	-9.999361113864095	-9.992148335236418	53.51926004534674	0.9340873010223504	0	0	0	-0.5714570494661817	0.02555175577297582	4.981554540824823	46.02458061212037	8.655371945003962	-6.845851562452332	19.13654362626172	80.17320147010626	0	0	49.95221498785253	-1.080700152551755	14.4130241962228	13.22519757223004	60.29627148034137	0	0
10.81999999999986	-0.9198097190916225	0.2931233920271004	30.32162529810575	0	0.9399999999999999	0	44.2524728101838	-9.999388162743061	-9.992395843835256	53.54292310694071	0.9345002993582673	0	0	0	44.2524728101838	-9.999388162743061	-9.992395843835256	53.54292310694071	0.9345002993582673	0	0	0	-0.3490625887158934	0.08999647183733046	4.912158582625469	49.77290566015396	8.79058691199366	-7.610714748226481	20.819284843242	80.87531259208851	0	0	53.95959879280898	-2.019892516077685	14.75811241433151	14.86142898518501	58.55431131689011	0	0
10.83999999999986	-0.790664015144107	0.4398092348191861	30.45403733917207	0	0.9399999999999999	0	44.26335077449402	-9.999409291120307	-9.992590422447647	53.56166500265391	0.934827407146528	0	0	0	44.26335077449402	-9.999409291120307	-9.992590422447647	53.56166500265391	0.934827407146528	0	0	0	-0.1464560916313431	0.127380878856088	4.856492671189351	53.74877736102849	8.789487008877655	-7.963975977078752	19.38446466130336	80.71509036105684	0	0	58.13300625609905	-2.918010209904691	15.12638455089972	16.75997623195681	57.05504109944523	0	0
10.85999999999986	-0.6618081064479475	0.5996285047918747	30.67596365519224	0	0.9399999999999999	0	44.27739758441806	-9.999435632526902	-9.992836903332883	53.58601256719503	0.9352523523126125	0	0	0	44.27739758441806	-9.999435632526902	-9.992836903332883	53.58601256719503	0.9352523523126125	0	0	0	0.0684705760750193	0.1568602732445426	4.76734292108375	57.57408977656915	8.724639172819597	-7.73041365154578	21.57210064547068	80.16045801093682	0	0	62.23974396242777	-3.72400468951347	15.60501188396798	19.03070601269823	55.18591347247717	0	0
